#!OML:ASF X:\für Bonn\!DataBase\2005_08_11_Bastian_Final\c3d\Bastian.ASF
:FULLY-SPECIFIED
:DEGREES
111
root -0.169735 7.91437 6.41601 169.878 -7.01094 -174.658
lowerback 29.0707 -1.74129 2.77352
upperback 5.53304 -2.72432 0.302769
thorax -9.89466 -1.90853 -0.167145
lowerneck -11.2003 -6.98405 -2.70881
upperneck -10.276 -10.1251 12.2573
head -0.550954 -5.71237 4.14333
rclavicle -2.22639e-014 -7.95139e-015
rhumerus 67.6079 4.79778 3.97594
rradius 38.8512
rwrist -53.979
rhand -43.9048 -7.39588
rfingers 7.12502
rthumb -16.7296 -36.695
lclavicle -2.22639e-014 -7.95139e-015
lhumerus 64.6404 -10.2995 -14.0022
lradius 32.4922
lwrist 8.43197
lhand -44.5969 13.1413
lfingers 7.12502
lthumb -17.3957 42.3829
rfemur -57.6924 -50.5482 23.5355
rtibia 149.316
rfoot -51.4542 2.11936
rtoes 5.85328
lfemur -65.0507 35.0509 -7.14172
ltibia 151.029
lfoot -43.9334 -28.0318
ltoes -1.15321
112
root -0.165479 8.10944 6.43628 170.106 -7.04338 -174.733
lowerback 29.137 -1.74424 2.72737
upperback 5.47034 -2.7294 0.273475
thorax -9.99983 -1.90497 -0.167462
lowerneck -11.2385 -6.97212 -2.70596
upperneck -10.2715 -10.1124 12.2815
head -0.542688 -5.70677 4.15013
rclavicle 1.15295e-014 8.74653e-015
rhumerus 67.6972 4.85808 3.5032
rradius 38.6777
rwrist -53.3248
rhand -43.8767 -7.35074
rfingers 7.12502
rthumb -16.7025 -36.6522
lclavicle 1.15295e-014 8.74653e-015
lhumerus 64.6805 -10.2332 -13.5326
lradius 32.4593
lwrist 8.1349
lhand -44.6741 12.928
lfingers 7.12502
lthumb -17.4701 42.163
rfemur -58.5689 -46.1131 24.9601
rtibia 147.737
rfoot -50.3678 1.85487
rtoes 5.52507
lfemur -64.7967 31.9412 -7.99792
ltibia 149.411
lfoot -43.2622 -27.2472
ltoes -1.99727
113
root -0.161094 8.30857 6.45402 170.304 -7.07232 -174.821
lowerback 29.1821 -1.74822 2.67474
upperback 5.43638 -2.74662 0.223543
thorax -10.0627 -1.90907 -0.184504
lowerneck -11.3058 -6.94494 -2.61888
upperneck -10.2805 -10.0938 12.2684
head -0.541461 -5.70262 4.12815
rclavicle -3.20043e-014 -2.38542e-015
rhumerus 67.7965 4.91629 2.91919
rradius 38.479
rwrist -52.748
rhand -43.8817 -7.1616
rfingers 7.12502
rthumb -16.7073 -36.4626
lclavicle -3.20043e-014 -2.38542e-015
lhumerus 64.7184 -10.134 -12.9531
lradius 32.3944
lwrist 7.79802
lhand -44.7307 12.6492
lfingers 7.12502
lthumb -17.5245 41.8794
rfemur -58.8906 -42.331 25.8557
rtibia 146.123
rfoot -49.4318 1.5094
rtoes 4.93946
lfemur -64.4493 28.9954 -8.76718
ltibia 147.756
lfoot -42.5578 -26.4471
ltoes -2.77262
114
root -0.157239 8.51026 6.4687 170.498 -7.11256 -174.932
lowerback 29.1767 -1.74159 2.59161
upperback 5.41371 -2.76034 0.184128
thorax -10.0857 -1.91054 -0.175906
lowerneck -11.3777 -6.94012 -2.60534
upperneck -10.2588 -10.0938 12.2812
head -0.522165 -5.70214 4.12607
rclavicle -2.5842e-015 -3.18055e-015
rhumerus 67.9026 4.98466 2.2829
rradius 38.2826
rwrist -52.2085
rhand -43.8859 -6.90851
rfingers 7.12502
rthumb -16.7113 -36.2092
lclavicle -2.5842e-015 -3.18055e-015
lhumerus 64.7535 -10.0301 -12.2283
lradius 32.3084
lwrist 7.34672
lhand -44.7854 12.4926
lfingers 7.12502
lthumb -17.5771 41.7181
rfemur -58.8777 -39.1478 26.4107
rtibia 144.478
rfoot -48.5852 1.09848
rtoes 4.33632
lfemur -64.0523 26.2461 -9.52362
ltibia 146.079
lfoot -41.9006 -25.4233
ltoes -4.01064
115
root -0.153839 8.71502 6.47865 170.689 -7.13644 -175.041
lowerback 29.0937 -1.72765 2.50448
upperback 5.40431 -2.76784 0.144946
thorax -10.0546 -1.90883 -0.170759
lowerneck -11.4232 -6.92551 -2.60838
upperneck -10.2496 -10.0779 12.3233
head -0.509919 -5.69486 4.13992
rclavicle 3.598e-014 -7.95139e-015
rhumerus 68.0079 5.06254 1.54452
rradius 38.0661
rwrist -51.6618
rhand -43.8624 -6.55617
rfingers 7.12502
rthumb -16.6887 -35.8588
lclavicle 3.598e-014 -7.95139e-015
lhumerus 64.7869 -9.94961 -11.5044
lradius 32.2315
lwrist 6.90081
lhand -44.8647 12.3702
lfingers 7.12502
lthumb -17.6534 41.5888
rfemur -58.6283 -36.3742 26.7708
rtibia 142.8
rfoot -47.8506 0.747243
rtoes 3.96391
lfemur -63.4929 23.8757 -10.1399
ltibia 144.382
lfoot -41.3276 -24.4876
ltoes -5.10315
116
root -0.150705 8.92357 6.48535 170.884 -7.16833 -175.156
lowerback 28.9671 -1.72235 2.38477
upperback 5.3893 -2.79284 0.118349
thorax -10.0067 -1.91299 -0.12797
lowerneck -11.4219 -6.90218 -2.60053
upperneck -10.2336 -10.046 12.3086
head -0.508609 -5.67767 4.13476
rclavicle -1.39149e-015 0
rhumerus 68.116 5.18145 1.01334
rradius 37.9846
rwrist -51.3427
rhand -43.9285 -6.22588
rfingers 7.12502
rthumb -16.7523 -35.5231
lclavicle -1.39149e-015 0
lhumerus 64.7787 -9.90672 -10.6893
lradius 32.1319
lwrist 6.33768
lhand -44.9215 12.3679
lfingers 7.12502
lthumb -17.7081 41.5816
rfemur -58.2242 -33.9062 27.0328
rtibia 141.076
rfoot -47.2058 0.275264
rtoes 3.30805
lfemur -62.8332 21.687 -10.6957
ltibia 142.647
lfoot -40.8272 -23.5183
ltoes -6.29298
117
root -0.148402 9.13507 6.49039 171.038 -7.1879 -175.261
lowerback 28.8197 -1.71021 2.31295
upperback 5.41005 -2.805 0.0655467
thorax -9.91009 -1.91568 -0.148746
lowerneck -11.3956 -6.88535 -2.59579
upperneck -10.2706 -10.0251 12.358
head -0.524037 -5.67228 4.15506
rclavicle -1.19271e-014 -7.95139e-016
rhumerus 68.1571 5.30411 0.73241
rradius 37.9837
rwrist -51.2895
rhand -44.0709 -5.95602
rfingers 7.12502
rthumb -16.8894 -35.2416
lclavicle -1.19271e-014 -7.95139e-016
lhumerus 64.835 -9.84885 -10.0404
lradius 32.054
lwrist 5.8823
lhand -45.0307 12.3958
lfingers 7.12502
lthumb -17.8132 41.6
rfemur -57.6547 -31.7163 27.2008
rtibia 139.301
rfoot -46.6032 -0.234382
rtoes 2.75888
lfemur -62.0221 19.6498 -11.1548
ltibia 140.866
lfoot -40.2996 -22.6946
ltoes -7.01298
118
root -0.145532 9.35181 6.49353 171.213 -7.22026 -175.395
lowerback 28.6215 -1.69116 2.19114
upperback 5.4179 -2.81778 0.019987
thorax -9.80069 -1.91513 -0.134274
lowerneck -11.2818 -6.86809 -2.57657
upperneck -10.336 -9.99801 12.3662
head -0.567459 -5.66502 4.16368
rclavicle 9.93923e-016 -1.11319e-014
rhumerus 68.1751 5.46627 0.85149
rradius 38.1171
rwrist -51.5918
rhand -44.3321 -5.73722
rfingers 7.12502
rthumb -17.1409 -35.0011
lclavicle 9.93923e-016 -1.11319e-014
lhumerus 64.87 -9.80642 -9.26667
lradius 31.9689
lwrist 5.25651
lhand -45.0744 12.5269
lfingers 7.12502
lthumb -17.8552 41.7272
rfemur -57.0223 -29.7454 27.3087
rtibia 137.464
rfoot -46.0175 -0.779328
rtoes 2.19522
lfemur -61.1823 17.7107 -11.6436
ltibia 139.032
lfoot -39.8238 -21.8115
ltoes -7.87989
119
root -0.143092 9.57455 6.49541 171.369 -7.23752 -175.498
lowerback 28.3987 -1.67539 2.08659
upperback 5.44021 -2.83048 -0.00661997
thorax -9.66191 -1.91607 -0.109816
lowerneck -11.1724 -6.85517 -2.59941
upperneck -10.3688 -9.96959 12.3789
head -0.59681 -5.65244 4.18022
rclavicle -2.62396e-014 1.43125e-014
rhumerus 68.2041 5.64294 1.13469
rradius 38.3169
rwrist -52.0104
rhand -44.6019 -5.54017
rfingers 7.12502
rthumb -17.4006 -34.7813
lclavicle -2.62396e-014 1.43125e-014
lhumerus 64.8839 -9.76035 -8.49156
lradius 31.8861
lwrist 4.596
lhand -45.115 12.6453
lfingers 7.12502
lthumb -17.8943 41.8421
rfemur -56.2642 -27.9747 27.4064
rtibia 135.548
rfoot -45.4856 -1.23837
rtoes 2.07018
lfemur -60.2717 15.9416 -12.0502
ltibia 137.13
lfoot -39.3006 -20.9946
ltoes -8.47728
120
root -0.141416 9.79959 6.49602 171.525 -7.27899 -175.629
lowerback 28.1666 -1.66213 1.97453
upperback 5.46146 -2.84912 -0.0533165
thorax -9.52054 -1.91946 -0.101882
lowerneck -11.0285 -6.83332 -2.60831
upperneck -10.4555 -9.93188 12.4117
head -0.650204 -5.64113 4.20554
rclavicle 8.15017e-015 -1.11319e-014
rhumerus 68.2219 5.86565 1.22468
rradius 38.4341
rwrist -52.168
rhand -44.8273 -5.39648
rfingers 7.12502
rthumb -17.6175 -34.6183
lclavicle 8.15017e-015 -1.11319e-014
lhumerus 64.9395 -9.72859 -7.83197
lradius 31.8072
lwrist 3.97973
lhand -45.1478 12.8115
lfingers 7.12502
lthumb -17.9259 42.0054
rfemur -55.4702 -26.4592 27.5008
rtibia 133.594
rfoot -44.9995 -2.12577
rtoes 1.0006
lfemur -59.3096 14.2544 -12.4926
ltibia 135.181
lfoot -38.8187 -20.1415
ltoes -9.09253
121
root -0.139811 10.0258 6.49422 171.679 -7.30107 -175.759
lowerback 27.9186 -1.64422 1.83296
upperback 5.47968 -2.86707 -0.0809972
thorax -9.37229 -1.92142 -0.0565644
lowerneck -10.901 -6.81883 -2.64989
upperneck -10.4952 -9.89858 12.4411
head -0.683368 -5.62635 4.23277
rclavicle -5.36719e-015 6.36111e-015
rhumerus 68.2844 6.11728 1.33848
rradius 38.555
rwrist -52.2713
rhand -45.0217 -5.36116
rfingers 7.12502
rthumb -17.8045 -34.5661
lclavicle -5.36719e-015 6.36111e-015
lhumerus 64.9747 -9.69794 -7.09283
lradius 31.6976
lwrist 3.35935
lhand -45.1777 12.9176
lfingers 7.12502
lthumb -17.9547 42.1088
rfemur -54.6157 -25.0859 27.6076
rtibia 131.582
rfoot -44.4954 -3.27196
rtoes -0.564125
lfemur -58.2986 12.7263 -12.8988
ltibia 133.178
lfoot -38.2919 -19.4346
ltoes -9.20893
122
root -0.138029 10.2545 6.49136 171.833 -7.3356 -175.865
lowerback 27.6372 -1.63656 1.74787
upperback 5.51053 -2.88528 -0.13349
thorax -9.19637 -1.92578 -0.0731431
lowerneck -10.7866 -6.80472 -2.62635
upperneck -10.5419 -9.87537 12.4533
head -0.720398 -5.61981 4.2412
rclavicle -2.80286e-014 6.36111e-015
rhumerus 68.3339 6.35871 1.14623
rradius 38.5562
rwrist -52.0665
rhand -45.1287 -5.37253
rfingers 7.12502
rthumb -17.9075 -34.5681
lclavicle -2.80286e-014 6.36111e-015
lhumerus 65.0461 -9.60712 -6.39516
lradius 31.589
lwrist 2.63982
lhand -45.1144 12.9624
lfingers 7.12502
lthumb -17.8938 42.1592
rfemur -53.7099 -23.8359 27.6652
rtibia 129.51
rfoot -43.9929 -4.12963
rtoes -1.61158
lfemur -57.2727 11.348 -13.2551
ltibia 131.132
lfoot -37.7676 -18.7443
ltoes -9.28423
